<svg xmlns="http://www.w3.org/2000/svg" version="1.1" xmlns:xlink="http://www.w3.org/1999/xlink" xmlns:svgjs="http://svgjs.dev/svgjs" width="1500" height="1500" viewBox="0 0 1500 1500"><rect width="1500" height="1500" fill="#cd6c31"></rect><g transform="matrix(0.6666666666666666,0,0,0.6666666666666666,249.39393939393943,550.1818165335928)"><svg viewBox="0 0 396 158" data-background-color="#cd6c31" preserveAspectRatio="xMidYMid meet" height="598" width="1500" xmlns="http://www.w3.org/2000/svg" xmlns:xlink="http://www.w3.org/1999/xlink"><g id="tight-bounds" transform="matrix(1,0,0,1,0.2400000000000091,0.1921563236429762)"><svg viewBox="0 0 395.52 157.61568735271405" height="157.61568735271405" width="395.52"><g><svg viewBox="0 0 395.52 157.61568735271405" height="157.61568735271405" width="395.52"><g><svg viewBox="0 0 623.4240282194091 248.43599999999995" height="157.61568735271405" width="395.52"><g><rect width="7.039472767960667" height="248.43599999999995" x="239.78067245794554" y="0" fill="#f6fdfe" opacity="1" stroke-width="0" stroke="transparent" fill-opacity="1" class="rect-yte-0" data-fill-palette-color="primary" rx="1%" id="yte-0" data-palette-color="#f6fdfe"></rect></g><g transform="matrix(1,0,0,1,265.2480844090493,0.6179999999999808)"><svg viewBox="0 0 358.1759438103599 247.2" height="247.2" width="358.1759438103599"><g id="textblocktransform"><svg viewBox="0 0 358.1759438103599 247.2" height="247.2" width="358.1759438103599" id="textblock"><g><svg viewBox="0 0 358.1759438103599 247.2" height="247.2" width="358.1759438103599"><g transform="matrix(1,0,0,1,0,0)"><svg width="358.1759438103599" viewBox="2.1499999999999977 -40.95 247.65000000000006 155.9" height="247.2" data-palette-color="#f6fdfe"><svg></svg><svg></svg><svg></svg><g class="wordmark-text-0" data-fill-palette-color="primary" id="text-0"><path d="M26.3 0v0h-23.65v-3.8c6.333-5.9 10.733-10.76 13.2-14.58 2.467-3.813 3.7-7.887 3.7-12.22v0c0-2.6-0.533-4.6-1.6-6-1.067-1.4-2.583-2.1-4.55-2.1v0c-1.367 0-2.5 0.643-3.4 1.93-0.9 1.28-1.65 3.437-2.25 6.47v0c-3.033 0.133-4.867-0.3-5.5-1.3v0c1.433-6.233 5.2-9.35 11.3-9.35v0c3.867 0 6.76 0.907 8.68 2.72 1.913 1.82 2.87 4.413 2.87 7.78v0c0 8.033-5.85 16.533-17.55 25.5v0h13.4c1.833-0.1 3.65-0.333 5.45-0.7v0c-0.067 2.133-0.1 4.017-0.1 5.65zM52.2-8.7v-9.15c0-2.567-0.34-4.367-1.02-5.4-0.687-1.033-1.83-1.55-3.43-1.55v0c-2.467 0-4.95 1.85-7.45 5.55v0 16.7l4.05 0.75c0.133 0.533 0.133 1.2 0 2v0c-2.1-0.1-4.25-0.15-6.45-0.15v0c-1.533 0-3.7 0.033-6.5 0.1v0c-0.2-0.633-0.2-1.283 0-1.95v0l3.95-0.55c0.133-1.833 0.2-3.95 0.2-6.35v0-13.7c0-0.667-0.05-1.283-0.15-1.85v0l-3.95-0.5c-0.133-0.5-0.133-1.133 0-1.9v0c2.3-0.167 5.167-0.517 8.6-1.05v0c0.3 0.333 0.467 0.667 0.5 1v0c-0.167 0.867-0.25 2.35-0.25 4.45v0c2.633-3.633 5.6-5.45 8.9-5.45v0c5.167 0 7.75 2.45 7.75 7.35v0 17.8l4.05 0.75c0.133 0.533 0.133 1.2 0 2v0c-2.1-0.1-4.25-0.15-6.45-0.15v0c-1.533 0-3.7 0.033-6.5 0.1v0c-0.2-0.633-0.2-1.283 0-1.95v0l3.95-0.55c0.133-1.833 0.2-3.95 0.2-6.35zM88.05-31.7v24.6c0 2.233 0.05 3.8 0.15 4.7v0l3.95 0.5c0.1 0.533 0.1 1.167 0 1.9v0c-2.433 0.1-4.967 0.333-7.6 0.7v0c-0.233-0.233-0.4-0.55-0.5-0.95v0l-0.25-3.2c-1.167 1.367-2.617 2.457-4.35 3.27-1.733 0.82-3.55 1.23-5.45 1.23v0c-2.9 0-5.3-1.21-7.2-3.63-1.9-2.413-2.85-5.637-2.85-9.67v0c0-4.667 1.24-8.41 3.72-11.23 2.487-2.813 5.463-4.22 8.93-4.22v0c2.733 0 4.967 0.65 6.7 1.95v0-6.7c0-2.2-0.05-3.833-0.15-4.9v0l-3.95-0.5c-0.133-0.5-0.133-1.133 0-1.9v0c2.3-0.167 5.167-0.517 8.6-1.05v0c0.3 0.333 0.467 0.667 0.5 1v0c-0.167 0.867-0.25 3.567-0.25 8.1zM76.2-25v0c-2.167 0-3.9 1.14-5.2 3.42-1.3 2.287-1.95 5.447-1.95 9.48v0c0 3.3 0.61 5.817 1.83 7.55 1.213 1.733 2.82 2.6 4.82 2.6v0c1.2 0 2.517-0.377 3.95-1.13 1.433-0.747 2.65-1.787 3.65-3.12v0-16c-1.633-1.867-4-2.8-7.1-2.8zM117.3-21.85h19.7v-15.75l-4.05-0.5c-0.133-0.5-0.133-1.117 0-1.85v0c1.833 0.133 4.117 0.2 6.85 0.2v0c2.467 0 4.767-0.05 6.9-0.15v0c0.2 0.6 0.2 1.2 0 1.8v0l-4.15 0.6c-0.133 1.267-0.2 3.217-0.2 5.85v0 29.45l4.05 0.5c0.133 0.5 0.133 1.117 0 1.85v0c-2.1-0.1-4.383-0.15-6.85-0.15v0c-1.8 0-4.1 0.033-6.9 0.1v0c-0.2-0.6-0.2-1.2 0-1.8v0l4.15-0.6c0.133-1.267 0.2-3.217 0.2-5.85v0-11.2h-19.7v17.15l4.05 0.5c0.133 0.5 0.133 1.117 0 1.85v0c-2.1-0.1-4.383-0.15-6.85-0.15v0c-1.8 0-4.1 0.033-6.9 0.1v0c-0.2-0.6-0.2-1.2 0-1.8v0l4.15-0.6c0.133-1.267 0.2-3.217 0.2-5.85v0-29.45l-4.05-0.5c-0.133-0.5-0.133-1.117 0-1.85v0c1.833 0.133 4.117 0.2 6.85 0.2v0c2.433 0 4.733-0.05 6.9-0.15v0c0.2 0.6 0.2 1.2 0 1.8v0l-4.15 0.6c-0.133 1.267-0.2 3.217-0.2 5.85v0zM150.2-13.3v0c0-2 0.293-3.877 0.88-5.63 0.58-1.747 1.42-3.27 2.52-4.57 1.1-1.3 2.427-2.327 3.98-3.08 1.547-0.747 3.287-1.12 5.22-1.12v0c1.9 0 3.633 0.373 5.2 1.12 1.567 0.753 2.91 1.78 4.03 3.08 1.113 1.3 1.97 2.823 2.57 4.57 0.6 1.753 0.9 3.63 0.9 5.63v0c0 2.067-0.307 3.967-0.92 5.7-0.62 1.733-1.487 3.24-2.6 4.52-1.12 1.287-2.463 2.287-4.03 3-1.567 0.72-3.283 1.08-5.15 1.08v0c-1.967 0-3.723-0.35-5.27-1.05-1.553-0.7-2.87-1.683-3.95-2.95-1.087-1.267-1.92-2.777-2.5-4.53-0.587-1.747-0.88-3.67-0.88-5.77zM157.5-22.5v0c-1.433 2.033-2.15 5.1-2.15 9.2v0c0 2.033 0.193 3.817 0.58 5.35 0.38 1.533 0.903 2.807 1.57 3.82 0.667 1.02 1.45 1.78 2.35 2.28 0.9 0.5 1.883 0.75 2.95 0.75v0c1.033 0 2.017-0.25 2.95-0.75 0.933-0.5 1.733-1.26 2.4-2.28 0.667-1.013 1.2-2.287 1.6-3.82 0.4-1.533 0.6-3.317 0.6-5.35v0c0-2.033-0.2-3.827-0.6-5.38-0.4-1.547-0.94-2.83-1.62-3.85-0.687-1.013-1.487-1.78-2.4-2.3-0.92-0.513-1.897-0.77-2.93-0.77v0c-2.067 0-3.833 1.033-5.3 3.1zM216.25-8.7v-9.15c0-4.633-1.483-6.95-4.45-6.95v0c-2.533 0-4.933 1.75-7.2 5.25v0 17l4.05 0.75c0.133 0.533 0.133 1.2 0 2v0c-2.1-0.1-4.233-0.15-6.4-0.15v0c-1.533 0-3.7 0.033-6.5 0.1v0c-0.2-0.633-0.2-1.283 0-1.95v0l3.95-0.55c0.133-1.833 0.2-3.95 0.2-6.35v0-9.15c0-4.633-1.483-6.95-4.45-6.95v0c-1.5 0-2.817 0.457-3.95 1.37-1.133 0.92-2.3 2.347-3.5 4.28v0 16.6l4.05 0.75c0.133 0.533 0.133 1.2 0 2v0c-2.1-0.1-4.233-0.15-6.4-0.15v0c-1.533 0-3.7 0.033-6.5 0.1v0c-0.2-0.633-0.2-1.283 0-1.95v0l3.95-0.55c0.133-1.833 0.2-3.95 0.2-6.35v0-13.7c0-0.667-0.05-1.283-0.15-1.85v0l-3.95-0.5c-0.133-0.5-0.133-1.133 0-1.9v0c2.233-0.167 5.083-0.517 8.55-1.05v0c0.3 0.333 0.467 0.667 0.5 1v0c-0.167 0.867-0.25 2.35-0.25 4.45v0c2.633-3.633 5.6-5.45 8.9-5.45v0c1.733 0 3.317 0.44 4.75 1.32 1.433 0.887 2.35 2.247 2.75 4.08v0c2.667-3.6 5.617-5.4 8.85-5.4v0c2.033 0 3.827 0.6 5.38 1.8 1.547 1.2 2.32 3.05 2.32 5.55v0 17.8l4.05 0.75c0.133 0.533 0.133 1.2 0 2v0c-2.1-0.1-4.233-0.15-6.4-0.15v0c-1.533 0-3.7 0.033-6.5 0.1v0c-0.2-0.633-0.2-1.283 0-1.95v0l3.95-0.55c0.133-1.833 0.2-3.95 0.2-6.35zM248.75-14.1v0h-15.7c-0.3 8.5 2.25 12.75 7.65 12.75v0c2.3 0 4.65-1.017 7.05-3.05v0c0.5 0.3 0.883 0.817 1.15 1.55v0c-2.3 2.567-5.217 3.85-8.75 3.85v0c-8.133 0-12.2-4.783-12.2-14.35v0c0-4.533 1.2-8.06 3.6-10.58 2.4-2.513 5.2-3.77 8.4-3.77v0c3.5 0 6.017 1.217 7.55 3.65 1.533 2.433 2.3 5.6 2.3 9.5v0c-0.333 0.267-0.683 0.417-1.05 0.45zM239.85-25.7v0c-1.733 0-3.207 0.9-4.42 2.7-1.22 1.8-1.963 4.1-2.23 6.9v0h6.2c2.467 0 4.233-0.15 5.3-0.45v0c0-2.733-0.417-4.943-1.25-6.63-0.833-1.68-2.033-2.52-3.6-2.52z" fill="#f6fdfe" fill-rule="nonzero" stroke="none" stroke-width="1" stroke-linecap="butt" stroke-linejoin="miter" stroke-miterlimit="10" stroke-dasharray="" stroke-dashoffset="0" font-family="none" font-weight="none" font-size="none" text-anchor="none" style="mix-blend-mode: normal" data-fill-palette-color="primary" opacity="1"></path><path transform="translate(0,56.95)" d="M2.6-39.95v0c1.7 0 4.15-0.067 7.35-0.2 3.2-0.133 5.317-0.2 6.35-0.2v0h1.35c4.367 0 7.617 0.89 9.75 2.67 2.133 1.787 3.2 4.13 3.2 7.03v0c0 4.133-2.7 7-8.1 8.6v0 0.15c3.133 0.467 5.61 1.69 7.43 3.67 1.813 1.987 2.72 4.363 2.72 7.13v0c0 3.7-1.257 6.583-3.77 8.65-2.52 2.067-6.213 3.1-11.08 3.1v0c-1.333 0-3.49-0.107-6.47-0.32-2.987-0.22-5.363-0.33-7.13-0.33v0c-0.2 0-0.517 0.01-0.95 0.03-0.433 0.013-0.75 0.02-0.95 0.02v0c-0.2-0.6-0.2-1.2 0-1.8v0l4.15-0.55c0.133-1.267 0.2-3.217 0.2-5.85v0-29.45l-4.05-0.5c-0.133-0.5-0.133-1.117 0-1.85zM16-20.3v0h-4v18.1c1.7 0.3 3.05 0.483 4.05 0.55v0c4.033 0 6.817-0.76 8.35-2.28 1.533-1.513 2.3-3.887 2.3-7.12v0c0-2.6-0.94-4.793-2.82-6.58-1.887-1.78-4.513-2.67-7.88-2.67zM16.35-38.25v0c-1.667 0-3.05 0.117-4.15 0.35v0c-0.133 1.267-0.2 3.35-0.2 6.25v0 8.85h3.9c3.1 0 5.36-0.633 6.78-1.9 1.413-1.267 2.12-3.15 2.12-5.65v0c0-2.533-0.773-4.483-2.32-5.85-1.553-1.367-3.597-2.05-6.13-2.05zM45.5-18.6v0 16.05l4.05 0.75c0.033 0.167 0.06 0.317 0.08 0.45 0.013 0.133 0.02 0.283 0.02 0.45v0c0 0.167-0.007 0.34-0.02 0.52-0.02 0.187-0.047 0.38-0.08 0.58v0c-2.1-0.1-4.25-0.15-6.45-0.15v0c-0.767 0-1.69 0.01-2.77 0.03-1.087 0.013-2.33 0.037-3.73 0.07v0c-0.1-0.3-0.15-0.617-0.15-0.95v0c0-0.3 0.05-0.633 0.15-1v0l3.95-0.55c0.067-0.933 0.117-1.927 0.15-2.98 0.033-1.047 0.05-2.17 0.05-3.37v0-10.65c0-2.2-0.05-3.833-0.15-4.9v0l-3.95-0.5c-0.067-0.167-0.1-0.45-0.1-0.85v0c0-0.167 0-0.333 0-0.5 0-0.167 0.033-0.35 0.1-0.55v0c2.267-0.133 5.133-0.483 8.6-1.05v0c0.3 0.333 0.467 0.667 0.5 1v0c-0.167 0.933-0.25 3.633-0.25 8.1zM38.2-36.45v0c-0.067-0.167-0.1-0.343-0.1-0.53 0-0.18 0-0.353 0-0.52v0c0-0.9 0.377-1.627 1.13-2.18 0.747-0.547 1.67-0.82 2.77-0.82v0c1.033 0 1.877 0.307 2.53 0.92 0.647 0.62 0.97 1.463 0.97 2.53v0c0 0.867-0.373 1.567-1.12 2.1-0.753 0.533-1.713 0.8-2.88 0.8v0c-0.8 0-1.507-0.2-2.12-0.6-0.62-0.4-1.013-0.967-1.18-1.7zM60.45-31.7v0 29.15l4.05 0.75c0.133 0.533 0.133 1.2 0 2v0c-2.1-0.1-4.25-0.15-6.45-0.15v0c-1.533 0-3.7 0.033-6.5 0.1v0c-0.2-0.633-0.2-1.283 0-1.95v0l3.95-0.55c0.133-1.833 0.2-3.95 0.2-6.35v0-28.65l-4.1-0.5c-0.133-0.5-0.133-1.133 0-1.9v0c2.3-0.167 5.167-0.517 8.6-1.05v0c0.3 0.333 0.467 0.667 0.5 1v0c-0.167 0.867-0.25 3.567-0.25 8.1zM75.95-18.6v0 16.05l4.05 0.75c0.033 0.167 0.06 0.317 0.08 0.45 0.013 0.133 0.02 0.283 0.02 0.45v0c0 0.167-0.007 0.34-0.02 0.52-0.02 0.187-0.047 0.38-0.08 0.58v0c-2.1-0.1-4.25-0.15-6.45-0.15v0c-0.767 0-1.693 0.01-2.78 0.03-1.08 0.013-2.32 0.037-3.72 0.07v0c-0.1-0.3-0.15-0.617-0.15-0.95v0c0-0.3 0.05-0.633 0.15-1v0l3.95-0.55c0.067-0.933 0.117-1.927 0.15-2.98 0.033-1.047 0.05-2.17 0.05-3.37v0-10.65c0-2.2-0.05-3.833-0.15-4.9v0l-3.95-0.5c-0.067-0.167-0.1-0.45-0.1-0.85v0c0-0.167 0-0.333 0-0.5 0-0.167 0.033-0.35 0.1-0.55v0c2.267-0.133 5.133-0.483 8.6-1.05v0c0.3 0.333 0.467 0.667 0.5 1v0c-0.167 0.933-0.25 3.633-0.25 8.1zM68.65-36.45v0c-0.067-0.167-0.1-0.343-0.1-0.53 0-0.18 0-0.353 0-0.52v0c0-0.9 0.373-1.627 1.12-2.18 0.753-0.547 1.68-0.82 2.78-0.82v0c1.033 0 1.873 0.307 2.52 0.92 0.653 0.62 0.98 1.463 0.98 2.53v0c0 0.867-0.373 1.567-1.12 2.1-0.753 0.533-1.713 0.8-2.88 0.8v0c-0.8 0-1.507-0.2-2.12-0.6-0.62-0.4-1.013-0.967-1.18-1.7zM103.35-8.7v-9.15c0-2.567-0.34-4.367-1.02-5.4-0.687-1.033-1.83-1.55-3.43-1.55v0c-2.467 0-4.95 1.85-7.45 5.55v0 16.7l4.05 0.75c0.133 0.533 0.133 1.2 0 2v0c-2.1-0.1-4.25-0.15-6.45-0.15v0c-1.533 0-3.7 0.033-6.5 0.1v0c-0.2-0.633-0.2-1.283 0-1.95v0l3.95-0.55c0.133-1.833 0.2-3.95 0.2-6.35v0-13.7c0-0.667-0.05-1.283-0.15-1.85v0l-3.95-0.5c-0.133-0.5-0.133-1.133 0-1.9v0c2.3-0.167 5.167-0.517 8.6-1.05v0c0.3 0.333 0.467 0.667 0.5 1v0c-0.167 0.867-0.25 2.35-0.25 4.45v0c2.633-3.633 5.6-5.45 8.9-5.45v0c5.167 0 7.75 2.45 7.75 7.35v0 17.8l4.05 0.75c0.133 0.533 0.133 1.2 0 2v0c-2.1-0.1-4.25-0.15-6.45-0.15v0c-1.533 0-3.7 0.033-6.5 0.1v0c-0.2-0.633-0.2-1.283 0-1.95v0l3.95-0.55c0.133-1.833 0.2-3.95 0.2-6.35zM118.9 0.55v0c0.3 0.133 0.55 0.417 0.75 0.85v0c-1.1 0.9-1.65 2.25-1.65 4.05v0c0 1.6 0.733 2.883 2.2 3.85 1.467 0.967 3.367 1.45 5.7 1.45v0c2.4 0 4.4-0.44 6-1.32 1.6-0.887 2.4-2.13 2.4-3.73v0c0-1.733-0.317-3.007-0.95-3.82-0.633-0.82-1.9-1.313-3.8-1.48v0l-9.35-0.85c-1.033-0.133-1.89-0.677-2.57-1.63-0.687-0.947-1.03-1.87-1.03-2.77v0l3.35-5.55c-1.533-0.867-2.69-2.017-3.47-3.45-0.787-1.433-1.18-2.9-1.18-4.4v0c0-2.833 1.05-5.117 3.15-6.85 2.1-1.733 4.517-2.6 7.25-2.6v0c2.633 0 4.95 0.7 6.95 2.1v0c0.167-4.567 1.867-6.933 5.1-7.1v0c0.867 0.2 1.3 0.917 1.3 2.15v0c0 0.667-0.067 1.4-0.2 2.2v0c-1.3 0.1-2.367 0.523-3.2 1.27-0.833 0.753-1.433 1.613-1.8 2.58v0c1.667 1.667 2.5 3.75 2.5 6.25v0c0 2.633-1.067 4.823-3.2 6.57-2.133 1.753-4.617 2.63-7.45 2.63v0c-1.5 0-2.85-0.2-4.05-0.6v0l-1.7 4.45 12.45 1.25c1.933 0.233 3.41 0.94 4.43 2.12 1.013 1.187 1.52 2.73 1.52 4.63v0c0 3.333-1.2 5.893-3.6 7.68-2.4 1.78-5.65 2.67-9.75 2.67v0c-3.4 0-6.05-0.617-7.95-1.85-1.9-1.233-2.85-2.883-2.85-4.95v0c0-1.4 0.45-2.64 1.35-3.72 0.9-1.087 2.017-1.78 3.35-2.08zM119.8-18.25v0c0 1.933 0.543 3.583 1.63 4.95 1.08 1.367 2.52 2.05 4.32 2.05v0c1.767 0 3.217-0.677 4.35-2.03 1.133-1.347 1.7-3.003 1.7-4.97v0c0-2.133-0.557-3.91-1.67-5.33-1.12-1.413-2.58-2.12-4.38-2.12v0c-1.7 0-3.117 0.717-4.25 2.15-1.133 1.433-1.7 3.2-1.7 5.3zM164.9-26.7v0 19.6c0 2.233 0.05 3.8 0.15 4.7v0l3.95 0.5c0.1 0.533 0.1 1.167 0 1.9v0c-2.433 0.1-4.967 0.333-7.6 0.7v0c-0.233-0.233-0.4-0.55-0.5-0.95v0l-0.25-4.45c-1.4 1.8-2.84 3.2-4.32 4.2-1.487 1-3.23 1.5-5.23 1.5v0c-2.033 0-3.74-0.517-5.12-1.55-1.387-1.033-2.08-2.8-2.08-5.3v0-11.1c0-3.8-0.05-6.233-0.15-7.3v0l-3.95-0.5c-0.133-0.5-0.133-1.133 0-1.9v0c2.3-0.167 5.167-0.517 8.6-1.05v0c0.3 0.333 0.467 0.667 0.5 1v0c-0.167 0.867-0.25 6.983-0.25 18.35v0c0 2.333 0.277 3.99 0.83 4.97 0.547 0.987 1.57 1.48 3.07 1.48v0c2.8 0 5.333-1.667 7.6-5v0-10.1c0-3.767-0.05-6.183-0.15-7.25v0l-3.95-0.5c-0.133-0.5-0.133-1.133 0-1.9v0c2-0.133 4.783-0.483 8.35-1.05v0c0.3 0.333 0.467 0.667 0.5 1zM176.6-6.65v0c0 1.733 0.317 2.957 0.95 3.67 0.633 0.72 1.633 1.08 3 1.08v0c1 0 2.11-0.31 3.33-0.93 1.213-0.613 2.337-1.503 3.37-2.67v0-7.8c-3.433 0.2-6.067 0.807-7.9 1.82-1.833 1.02-2.75 2.63-2.75 4.83zM187.25-15.1v0-2.55c0-2.833-0.323-4.893-0.97-6.18-0.653-1.28-1.73-1.92-3.23-1.92v0c-1.533 0-2.767 0.49-3.7 1.47-0.933 0.987-1.567 2.663-1.9 5.03v0c-1.067 0.233-1.85 0.35-2.35 0.35v0c-1.3 0-2.067-0.467-2.3-1.4v0c0-2.267 0.983-4.067 2.95-5.4 1.967-1.333 4.417-2 7.35-2v0c3.233 0 5.527 0.657 6.88 1.97 1.347 1.32 2.02 3.68 2.02 7.08v0 14.1c0 0.833 0.05 1.55 0.15 2.15v0l3.95 0.5c0.133 0.5 0.133 1.133 0 1.9v0c-2.367 0.1-4.883 0.333-7.55 0.7v0c-0.267-0.267-0.433-0.6-0.5-1v0l-0.25-3.45c-2.767 3.167-5.85 4.75-9.25 4.75v0c-2.1 0-3.74-0.6-4.92-1.8-1.187-1.2-1.78-2.817-1.78-4.85v0c0-3.067 1.393-5.383 4.18-6.95 2.78-1.567 6.52-2.4 11.22-2.5zM206.4-31.7v0 29.15l4.05 0.75c0.133 0.533 0.133 1.2 0 2v0c-2.1-0.1-4.25-0.15-6.45-0.15v0c-1.533 0-3.7 0.033-6.5 0.1v0c-0.2-0.633-0.2-1.283 0-1.95v0l3.95-0.55c0.133-1.833 0.2-3.95 0.2-6.35v0-28.65l-4.1-0.5c-0.133-0.5-0.133-1.133 0-1.9v0c2.3-0.167 5.167-0.517 8.6-1.05v0c0.3 0.333 0.467 0.667 0.5 1v0c-0.167 0.867-0.25 3.567-0.25 8.1z" fill="#f6fdfe" fill-rule="nonzero" stroke="none" stroke-width="1" stroke-linecap="butt" stroke-linejoin="miter" stroke-miterlimit="10" stroke-dasharray="" stroke-dashoffset="0" font-family="none" font-weight="none" font-size="none" text-anchor="none" style="mix-blend-mode: normal" data-fill-palette-color="primary" opacity="1"></path><path transform="translate(0,113.9)" d="M34.8-7.4v0c0.567 0.367 1 1 1.3 1.9v0c-4.633 4.333-9.333 6.5-14.1 6.5v0c-3.267 0-6.117-0.593-8.55-1.78-2.433-1.18-4.45-2.747-6.05-4.7-1.6-1.947-2.79-4.163-3.57-6.65-0.787-2.48-1.18-5.02-1.18-7.62v0c0-2.633 0.45-5.21 1.35-7.73 0.9-2.513 2.217-4.763 3.95-6.75 1.733-1.98 3.877-3.57 6.43-4.77 2.547-1.2 5.453-1.8 8.72-1.8v0c4.3 0 8.3 1 12 3v0 9.6c-0.6 0.1-1.133 0.15-1.6 0.15v0c-0.5 0-0.917-0.05-1.25-0.15v0l-1.6-8.35c-2.033-1.333-4.75-2-8.15-2v0c-2.1 0-3.993 0.473-5.68 1.42-1.68 0.953-3.11 2.24-4.29 3.86-1.187 1.613-2.097 3.51-2.73 5.69-0.633 2.187-0.95 4.513-0.95 6.98v0c0 2.633 0.31 5.067 0.93 7.3 0.613 2.233 1.487 4.167 2.62 5.8 1.133 1.633 2.51 2.907 4.13 3.82 1.613 0.92 3.42 1.38 5.42 1.38v0c2.4 0 4.717-0.467 6.95-1.4 2.233-0.933 4.2-2.167 5.9-3.7zM43.15-8.7v-23.75c0-2.2-0.05-3.833-0.15-4.9v0l-3.95-0.5c-0.133-0.5-0.133-1.133 0-1.9v0c2.233-0.167 5.083-0.517 8.55-1.05v0c0.3 0.333 0.467 0.667 0.5 1v0c-0.167 0.867-0.25 3.567-0.25 8.1v0 9.45c2.467-3.4 5.433-5.1 8.9-5.1v0c2.067 0 3.833 0.517 5.3 1.55 1.467 1.033 2.2 2.8 2.2 5.3v0 17.95l4.05 0.75c0.133 0.533 0.133 1.2 0 2v0c-2.1-0.1-4.233-0.15-6.4-0.15v0c-1.533 0-3.7 0.033-6.5 0.1v0c-0.2-0.633-0.2-1.283 0-1.95v0l3.95-0.55c0.133-1.833 0.2-3.95 0.2-6.35v0-9.3c0-2.333-0.29-4.017-0.87-5.05-0.587-1.033-1.647-1.55-3.18-1.55v0c-1.267 0-2.59 0.467-3.97 1.4-1.387 0.933-2.613 2.283-3.68 4.05v0 16.6l4.05 0.75c0.133 0.533 0.133 1.2 0 2v0c-2.1-0.1-4.233-0.15-6.4-0.15v0c-1.533 0-3.7 0.033-6.5 0.1v0c-0.2-0.633-0.2-1.283 0-1.95v0l3.95-0.55c0.133-1.833 0.2-3.95 0.2-6.35zM79.5-18.6v0 16.05l4.05 0.75c0.033 0.167 0.06 0.317 0.08 0.45 0.013 0.133 0.02 0.283 0.02 0.45v0c0 0.167-0.007 0.34-0.02 0.52-0.02 0.187-0.047 0.38-0.08 0.58v0c-2.1-0.1-4.25-0.15-6.45-0.15v0c-0.767 0-1.69 0.01-2.77 0.03-1.087 0.013-2.33 0.037-3.73 0.07v0c-0.1-0.3-0.15-0.617-0.15-0.95v0c0-0.3 0.05-0.633 0.15-1v0l3.95-0.55c0.067-0.933 0.117-1.927 0.15-2.98 0.033-1.047 0.05-2.17 0.05-3.37v0-10.65c0-2.2-0.05-3.833-0.15-4.9v0l-3.95-0.5c-0.067-0.167-0.1-0.45-0.1-0.85v0c0-0.167 0-0.333 0-0.5 0-0.167 0.033-0.35 0.1-0.55v0c2.267-0.133 5.133-0.483 8.6-1.05v0c0.3 0.333 0.467 0.667 0.5 1v0c-0.167 0.933-0.25 3.633-0.25 8.1zM72.2-36.45v0c-0.067-0.167-0.1-0.343-0.1-0.53 0-0.18 0-0.353 0-0.52v0c0-0.9 0.377-1.627 1.13-2.18 0.747-0.547 1.67-0.82 2.77-0.82v0c1.033 0 1.877 0.307 2.53 0.92 0.647 0.62 0.97 1.463 0.97 2.53v0c0 0.867-0.373 1.567-1.12 2.1-0.753 0.533-1.713 0.8-2.88 0.8v0c-0.8 0-1.507-0.2-2.12-0.6-0.62-0.4-1.013-0.967-1.18-1.7zM94.45-31.7v0 29.15l4.05 0.75c0.133 0.533 0.133 1.2 0 2v0c-2.1-0.1-4.25-0.15-6.45-0.15v0c-1.533 0-3.7 0.033-6.5 0.1v0c-0.2-0.633-0.2-1.283 0-1.95v0l3.95-0.55c0.133-1.833 0.2-3.95 0.2-6.35v0-28.65l-4.1-0.5c-0.133-0.5-0.133-1.133 0-1.9v0c2.3-0.167 5.167-0.517 8.6-1.05v0c0.3 0.333 0.467 0.667 0.5 1v0c-0.167 0.867-0.25 3.567-0.25 8.1zM125.85-31.7v24.6c0 2.233 0.05 3.8 0.15 4.7v0l3.95 0.5c0.1 0.533 0.1 1.167 0 1.9v0c-2.433 0.1-4.967 0.333-7.6 0.7v0c-0.233-0.233-0.4-0.55-0.5-0.95v0l-0.25-3.2c-1.167 1.367-2.617 2.457-4.35 3.27-1.733 0.82-3.55 1.23-5.45 1.23v0c-2.9 0-5.3-1.21-7.2-3.63-1.9-2.413-2.85-5.637-2.85-9.67v0c0-4.667 1.243-8.41 3.73-11.23 2.48-2.813 5.453-4.22 8.92-4.22v0c2.733 0 4.967 0.65 6.7 1.95v0-6.7c0-2.2-0.05-3.833-0.15-4.9v0l-3.95-0.5c-0.133-0.5-0.133-1.133 0-1.9v0c2.3-0.167 5.167-0.517 8.6-1.05v0c0.3 0.333 0.467 0.667 0.5 1v0c-0.167 0.867-0.25 3.567-0.25 8.1zM114-25v0c-2.167 0-3.9 1.14-5.2 3.42-1.3 2.287-1.95 5.447-1.95 9.48v0c0 3.3 0.61 5.817 1.83 7.55 1.213 1.733 2.82 2.6 4.82 2.6v0c1.2 0 2.517-0.377 3.95-1.13 1.433-0.747 2.65-1.787 3.65-3.12v0-16c-1.633-1.867-4-2.8-7.1-2.8zM154.7-20.3v0c-0.7 0.733-2.35 1.083-4.95 1.05v0c-0.533-4.2-2.05-6.3-4.55-6.3v0c-1.967 0-3.633 1.133-5 3.4-1.367 2.267-2.05 5.25-2.05 8.95v0c0 3.8 0.6 6.727 1.8 8.78 1.2 2.047 3 3.07 5.4 3.07v0c2.533 0 5.017-1.033 7.45-3.1v0c0.5 0.3 0.883 0.817 1.15 1.55v0c-2.433 2.6-5.483 3.9-9.15 3.9v0c-3.5 0-6.367-1.21-8.6-3.63-2.233-2.413-3.35-5.97-3.35-10.67v0c0-4.5 1.243-8.027 3.73-10.58 2.48-2.547 5.32-3.82 8.52-3.82v0c2.533 0 4.767 0.633 6.7 1.9 1.933 1.267 2.9 3.1 2.9 5.5zM163.15-6.65v0c0 1.733 0.317 2.957 0.95 3.67 0.633 0.72 1.633 1.08 3 1.08v0c1 0 2.11-0.31 3.33-0.93 1.213-0.613 2.337-1.503 3.37-2.67v0-7.8c-3.433 0.2-6.067 0.807-7.9 1.82-1.833 1.02-2.75 2.63-2.75 4.83zM173.8-15.1v0-2.55c0-2.833-0.323-4.893-0.97-6.18-0.653-1.28-1.73-1.92-3.23-1.92v0c-1.533 0-2.767 0.49-3.7 1.47-0.933 0.987-1.567 2.663-1.9 5.03v0c-1.067 0.233-1.85 0.35-2.35 0.35v0c-1.3 0-2.067-0.467-2.3-1.4v0c0-2.267 0.983-4.067 2.95-5.4 1.967-1.333 4.417-2 7.35-2v0c3.233 0 5.527 0.657 6.88 1.97 1.347 1.32 2.02 3.68 2.02 7.08v0 14.1c0 0.833 0.05 1.55 0.15 2.15v0l3.95 0.5c0.133 0.5 0.133 1.133 0 1.9v0c-2.367 0.1-4.883 0.333-7.55 0.7v0c-0.267-0.267-0.433-0.6-0.5-1v0l-0.25-3.45c-2.767 3.167-5.85 4.75-9.25 4.75v0c-2.1 0-3.74-0.6-4.92-1.8-1.187-1.2-1.78-2.817-1.78-4.85v0c0-3.067 1.393-5.383 4.18-6.95 2.78-1.567 6.52-2.4 11.22-2.5zM193.75-26.7v0l-0.1 5.15c0.833-1.533 1.993-2.943 3.48-4.23 1.48-1.28 2.887-1.92 4.22-1.92v0c1.033 0 1.95 0.117 2.75 0.35v0c0.267 0.433 0.4 1 0.4 1.7v0c0 1.1-0.233 2.2-0.7 3.3v0c-1.2-0.333-2.35-0.5-3.45-0.5v0c-2.733 0-4.983 1.333-6.75 4v0l-0.1 8.75v7.55l5.55 0.75c0.133 0.533 0.133 1.2 0 2v0c-2.1-0.1-4.5-0.15-7.2-0.15v0c-2.033 0-4.45 0.033-7.25 0.1v0c-0.2-0.633-0.2-1.283 0-1.95v0l3.95-0.55c0.133-1.833 0.2-3.95 0.2-6.35v0-13.7c0-0.667-0.05-1.283-0.15-1.85v0l-3.95-0.5c-0.133-0.5-0.133-1.133 0-1.9v0c2.3-0.167 5.167-0.517 8.6-1.05v0c0.3 0.333 0.467 0.667 0.5 1zM227.7-14.1v0h-15.7c-0.3 8.5 2.25 12.75 7.65 12.75v0c2.3 0 4.65-1.017 7.05-3.05v0c0.5 0.3 0.883 0.817 1.15 1.55v0c-2.3 2.567-5.217 3.85-8.75 3.85v0c-8.133 0-12.2-4.783-12.2-14.35v0c0-4.533 1.2-8.06 3.6-10.58 2.4-2.513 5.2-3.77 8.4-3.77v0c3.5 0 6.017 1.217 7.55 3.65 1.533 2.433 2.3 5.6 2.3 9.5v0c-0.333 0.267-0.683 0.417-1.05 0.45zM218.8-25.7v0c-1.733 0-3.207 0.9-4.42 2.7-1.22 1.8-1.963 4.1-2.23 6.9v0h6.2c2.467 0 4.233-0.15 5.3-0.45v0c0-2.733-0.417-4.943-1.25-6.63-0.833-1.68-2.033-2.52-3.6-2.52z" fill="#f6fdfe" fill-rule="nonzero" stroke="none" stroke-width="1" stroke-linecap="butt" stroke-linejoin="miter" stroke-miterlimit="10" stroke-dasharray="" stroke-dashoffset="0" font-family="none" font-weight="none" font-size="none" text-anchor="none" style="mix-blend-mode: normal" data-fill-palette-color="primary" opacity="1"></path></g></svg></g></svg></g></svg></g></svg></g><g transform="matrix(1,0,0,1,0,15.603251956824806)"><svg viewBox="0 0 221.35273327480243 217.22949608635034" height="217.22949608635034" width="221.35273327480243"><g><svg xmlns="http://www.w3.org/2000/svg" xmlns:xlink="http://www.w3.org/1999/xlink" version="1.1" x="0" y="0" viewBox="24.550000000000004 24.949999999999996 50.99999999999998 50.050000000000004" enable-background="new 0 0 100 100" xml:space="preserve" height="217.22949608635034" width="221.35273327480243" class="icon-icon-0" data-fill-palette-color="accent" id="icon-0"><path d="M51.8 25.7C50.8 24.7 49.2 24.7 48.3 25.7L25.3 48.7C24.3 49.7 24.3 51.3 25.3 52.2 26.3 53.2 27.9 53.2 28.8 52.2L29.5 51.5V72.5C29.5 73.9 30.6 75 32 75H68C69.4 75 70.5 73.9 70.5 72.5V51.5L71.2 52.2C71.7 52.7 72.3 52.9 73 52.9S74.3 52.7 74.8 52.2C75.8 51.2 75.8 49.6 74.8 48.7zM65 70H35C34.7 70 34.5 69.8 34.5 69.5V46.7C34.5 46.6 34.6 46.4 34.6 46.3L49.6 31.3C49.8 31.1 50.1 31.1 50.3 31.3L65.3 46.3C65.4 46.4 65.4 46.5 65.4 46.7V69.5C65.5 69.8 65.3 70 65 70" fill="#f4c450" data-fill-palette-color="accent"></path><path d="M46.5 50.5V60.5C46.5 61.9 47.6 63 49 63H59C60.4 63 61.5 61.9 61.5 60.5V50.5C61.5 49.1 60.4 48 59 48H49C47.6 48 46.5 49.1 46.5 50.5M51.5 53H56.5V58H51.5z" fill="#f4c450" data-fill-palette-color="accent"></path></svg></g></svg></g></svg></g></svg></g><defs></defs></svg><rect width="395.52" height="157.61568735271405" fill="none" stroke="none" visibility="hidden"></rect></g></svg></g></svg>